<svg preserveAspectRatio="none" width="100%" height="100%" overflow="visible" style="display: block;" viewBox="0 0 76 69" fill="none" xmlns="http://www.w3.org/2000/svg">
<g id="_&#231;&#183;&#168;&#233;&#155;&#134;&#227;&#131;&#162;&#227;&#131;&#188;&#227;&#131;&#137;" clip-path="url(#clip0_24_91)">
<path id="Vector" fill-rule="evenodd" clip-rule="evenodd" d="M27.8002 11.6234H19.9104C19.2106 11.6234 18.6437 12.1999 18.6437 12.9115C18.6437 13.6232 19.2106 14.1996 19.9104 14.1996H27.8002C28.5 14.1996 29.0668 13.6232 29.0668 12.9115C29.0668 12.1999 28.5 11.6234 27.8002 11.6234ZM31.5954 5.46957H19.9104C19.2106 5.46957 18.6437 6.04599 18.6437 6.75767C18.6437 7.46934 19.2106 8.04576 19.9104 8.04576H31.5954C32.2952 8.04576 32.8621 7.46934 32.8621 6.75767C32.8621 6.04599 32.2952 5.46957 31.5954 5.46957ZM40.4051 5.46957H35.1563C34.4565 5.46957 33.8897 6.04599 33.8897 6.75767C33.8897 7.46934 34.4565 8.04576 35.1563 8.04576H40.4051C41.1049 8.04576 41.6717 7.46934 41.6717 6.75767C41.6717 6.04599 41.1049 5.46957 40.4051 5.46957ZM43.0493 0C45.1123 0 46.8017 1.718 46.8017 3.81598V11.9374H32.7481C29.8015 11.9374 27.4028 14.3767 27.4028 17.3732V18.3183C27.1732 17.9915 26.7963 17.7773 26.3704 17.7773H19.9104C19.2106 17.7773 18.6437 18.3537 18.6437 19.0654C18.6437 19.7771 19.2106 20.3535 19.9104 20.3535H26.3704C26.7963 20.3535 27.1732 20.1394 27.4028 19.8125V26.253H26.8201L20.1052 33.1668V26.253H17.2662C15.2016 26.253 13.5137 24.535 13.5137 22.437V3.81598C13.5137 1.718 15.2016 0 17.2662 0H43.0493Z" fill="var(--fill-0, #3DC2FF)"/>
<path id="Vector_2" fill-rule="evenodd" clip-rule="evenodd" d="M50.1442 18.1009H42.769C42.0692 18.1009 41.5023 18.6774 41.5023 19.389C41.5023 20.1007 42.0692 20.6771 42.769 20.6771H50.1442C50.844 20.6771 51.4108 20.1007 51.4108 19.389C51.4108 18.6774 50.844 18.1009 50.1442 18.1009ZM50.1442 28.3993H35.9448C35.245 28.3993 34.6782 28.9757 34.6782 29.6874C34.6782 30.399 35.245 30.9755 35.9448 30.9755H50.1442C50.844 30.9755 51.4108 30.399 51.4108 29.6874C51.4108 28.9757 50.844 28.3993 50.1442 28.3993ZM50.1442 23.2501H35.9448C35.245 23.2501 34.6782 23.8265 34.6782 24.5382C34.6782 25.2499 35.245 25.8263 35.9448 25.8263H50.1442C50.844 25.8263 51.4108 25.2499 51.4108 24.5382C51.4108 23.8265 50.844 23.2501 50.1442 23.2501ZM38.6191 18.1009H35.9448C35.245 18.1009 34.6782 18.6774 34.6782 19.389C34.6782 20.1007 35.245 20.6771 35.9448 20.6771H38.6191C39.3189 20.6771 39.8858 20.1007 39.8858 19.389C39.8858 18.6774 39.3189 18.1009 38.6191 18.1009ZM29.9361 31.7032V17.3732C29.9361 15.7985 31.1996 14.5136 32.7481 14.5136H53.3409C54.8894 14.5136 56.1529 15.7985 56.1529 17.3732V31.7032C56.1529 33.2779 54.8894 34.5628 53.3409 34.5628H50.9612V40.3866L45.4591 34.5628H32.7481C31.1996 34.5628 29.9361 33.2779 29.9361 31.7032Z" fill="var(--fill-0, #A1E1FF)"/>
<path id="Vector_3" fill-rule="evenodd" clip-rule="evenodd" d="M30.4602 67.7988C30.5742 68.4268 30.1055 69 29.4785 69H0.999083C0.3705 69 -0.0981667 68.4268 0.0174167 67.7988C1.35375 60.4857 7.66017 54.9485 15.238 54.9485C22.8158 54.9485 29.1238 60.4857 30.4602 67.7988Z" fill="var(--fill-0, #A1E1FF)"/>
<path id="Vector_4" fill-rule="evenodd" clip-rule="evenodd" d="M7.41 44.9561C7.41 40.5589 10.9155 36.9957 15.238 36.9957C19.5605 36.9957 23.0676 40.5605 23.0676 44.9561C23.0676 49.3517 19.5621 52.9165 15.238 52.9165C10.9139 52.9165 7.41 49.3517 7.41 44.9561Z" fill="var(--fill-0, #3DC2FF)"/>
<path id="Vector_5" fill-rule="evenodd" clip-rule="evenodd" d="M75.9826 67.7988C76.0982 68.4268 75.6279 69 75.0009 69H46.5215C45.8945 69 45.4242 68.4268 45.5398 67.7988C46.8762 60.4857 53.1826 54.9485 60.7604 54.9485C68.3383 54.9485 74.6463 60.4857 75.9826 67.7988Z" fill="var(--fill-0, #A1E1FF)"/>
<path id="Vector_6" fill-rule="evenodd" clip-rule="evenodd" d="M52.9324 44.9561C52.9324 40.5589 56.4379 36.9957 60.7604 36.9957C65.0829 36.9957 68.59 40.5605 68.59 44.9561C68.59 49.3517 65.0845 52.9165 60.7604 52.9165C56.4363 52.9165 52.9324 49.3517 52.9324 44.9561Z" fill="var(--fill-0, #3DC2FF)"/>
</g>
<defs>
<clipPath id="clip0_24_91">
<rect width="76" height="69" fill="white"/>
</clipPath>
</defs>
</svg>
