<svg preserveAspectRatio="none" width="100%" height="100%" overflow="visible" style="display: block;" viewBox="0 0 29.5897 29.5898" fill="none" xmlns="http://www.w3.org/2000/svg">
<g id="Group">
<path id="Vector" d="M16.308 17.2533C17.6527 17.2533 18.5112 17.7379 19.0306 18.2174V18.2187L19.0535 17.7582L20.637 17.4195L20.6002 17.8927C20.5558 18.4673 20.5354 19.0648 20.5354 19.7751V24.6121C20.5354 26.4933 20.091 27.8024 19.1754 28.6156C18.6814 29.0596 18.0439 29.3729 17.2807 29.5454L17.0839 29.5898L17.4268 28.0777L17.4966 28.0562C18.5112 27.7441 18.9062 26.9588 18.9062 25.2552V25.2134C18.19 25.8464 17.2147 26.1927 16.1264 26.1927C14.0641 26.1927 11.9319 24.5956 11.9319 21.9215C11.9319 18.8897 14.1873 17.2533 16.308 17.2533ZM1.6293 18.2975C1.82739 18.1123 2.0458 17.9499 2.27183 17.8205C2.86865 17.4551 3.57603 17.2534 4.26177 17.2534V17.256C4.84595 17.256 7.76157 17.4488 7.76157 21.2633V26.1954H6.13227V21.2963C6.13227 20.3576 5.86055 18.7833 4.0459 18.7833C2.93984 18.7833 2.04448 19.5901 1.7334 20.388C1.65591 20.5834 1.6293 20.7584 1.6293 21.0819V26.1954H0V13.8626L1.6293 13.5277V18.2975ZM23.4575 18.2975C23.6556 18.1123 23.874 17.9499 24.1 17.8205C24.6968 17.4551 25.4042 17.2534 26.0899 17.2534V17.256C26.6741 17.256 29.5897 17.4488 29.5897 21.2633V26.1954H27.9604V21.2962C27.9604 20.3575 27.6887 18.7833 25.874 18.7833C24.768 18.7833 23.8727 19.5901 23.5616 20.388C23.4841 20.5834 23.4575 20.7571 23.4575 21.0819V26.1954H21.8282V13.8626L23.4575 13.5277V18.2975ZM10.7358 26.1927H9.10767V17.7569L10.7358 17.4232V26.1927ZM16.3905 18.7324C14.699 18.7324 13.5612 19.9743 13.5612 21.8226C13.5612 23.8205 14.9657 24.7148 16.3575 24.7148C17.3976 24.7148 18.3893 24.0412 18.769 23.0759C18.8554 22.8602 18.9062 22.5964 18.9062 22.3667V21.0462C18.9062 20.7646 18.877 20.5439 18.8122 20.3511H18.8109C18.5303 19.5697 17.7467 18.7324 16.3905 18.7324ZM9.92676 14.7378C10.3395 14.7378 10.6748 15.0866 10.6748 15.5167C10.6748 15.8998 10.3865 16.2955 9.90518 16.2956C9.49878 16.2956 9.1686 15.9391 9.1686 15.5167C9.1686 15.0942 9.51406 14.7378 9.92676 14.7378ZM26.9661 3.16245C27.7814 3.16245 28.5434 3.37427 29.1135 3.76113L29.4043 3.95781L28.7338 5.36836L28.3389 5.09692C27.9198 4.80898 27.3941 4.65674 26.8188 4.65674C26.0417 4.65674 25.5591 5.04492 25.5591 5.66777C25.5591 6.17266 25.7775 6.45684 27.1312 6.91475L27.1338 6.91602C28.2703 7.3042 29.5745 8.00698 29.5745 9.61421C29.5745 11.2214 28.2602 12.3009 26.3058 12.3009C26.0493 12.3009 25.7801 12.2781 25.5032 12.2337L25.3711 12.2122L25.7103 10.6557L25.8397 10.6912C25.9197 10.714 25.9769 10.733 26.0251 10.7508C26.1267 10.7875 26.1788 10.8053 26.3706 10.8053C27.3662 10.8053 27.9604 10.3842 27.9604 9.67891C27.9604 9.02812 27.5617 8.68052 26.3782 8.30249C24.3667 7.65557 23.9451 6.56719 23.9451 5.76675C23.9451 4.47285 24.9826 3.16245 26.9661 3.16245ZM17.8408 12.1031H16.2127V0.334912L17.8408 0V12.1031ZM21.8905 12.1031H20.2611V0.334912L21.8905 0V12.1031ZM9.41372 12.103H7.78442V6.55317L1.63052 7.90801V12.103H0.00126958V0.464209L1.63052 0.129346V6.40732L7.78442 5.05254V0.464209L9.41372 0.129346V12.103ZM13.5663 12.0827H11.9383V3.64697L13.5663 3.31206V12.0827ZM12.7573 0.626611C13.1701 0.626611 13.5053 0.975439 13.5053 1.40547C13.5053 1.78857 13.2171 2.18433 12.7358 2.18433C12.3294 2.18433 11.9992 1.82788 11.9992 1.40547C11.9992 0.983056 12.3446 0.626611 12.7573 0.626611Z" fill="var(--fill-0, #002130)"/>
<path id="Vector_2" d="M16.308 17.2533C17.6527 17.2533 18.5112 17.7379 19.0306 18.2174V18.2187L19.0535 17.7582L20.637 17.4195L20.6002 17.8927C20.5558 18.4673 20.5354 19.0648 20.5354 19.7751V24.6121C20.5354 26.4933 20.091 27.8024 19.1754 28.6156C18.6814 29.0596 18.0439 29.3729 17.2807 29.5454L17.0839 29.5898L17.4268 28.0777L17.4966 28.0562C18.5112 27.7441 18.9062 26.9588 18.9062 25.2552V25.2134C18.19 25.8464 17.2147 26.1927 16.1264 26.1927C14.0641 26.1927 11.9319 24.5956 11.9319 21.9215C11.9319 18.8897 14.1873 17.2533 16.308 17.2533ZM1.6293 18.2975C1.82739 18.1123 2.0458 17.9499 2.27183 17.8205C2.86865 17.4551 3.57603 17.2534 4.26177 17.2534V17.256C4.84595 17.256 7.76157 17.4488 7.76157 21.2633V26.1954H6.13227V21.2963C6.13227 20.3576 5.86055 18.7833 4.0459 18.7833C2.93984 18.7833 2.04448 19.5901 1.7334 20.388C1.65591 20.5834 1.6293 20.7584 1.6293 21.0819V26.1954H0V13.8626L1.6293 13.5277V18.2975ZM23.4575 18.2975C23.6556 18.1123 23.874 17.9499 24.1 17.8205C24.6968 17.4551 25.4042 17.2534 26.0899 17.2534V17.256C26.6741 17.256 29.5897 17.4488 29.5897 21.2633V26.1954H27.9604V21.2962C27.9604 20.3575 27.6887 18.7833 25.874 18.7833C24.768 18.7833 23.8727 19.5901 23.5616 20.388C23.4841 20.5834 23.4575 20.7571 23.4575 21.0819V26.1954H21.8282V13.8626L23.4575 13.5277V18.2975ZM10.7358 26.1927H9.10767V17.7569L10.7358 17.4232V26.1927ZM16.3905 18.7324C14.699 18.7324 13.5612 19.9743 13.5612 21.8226C13.5612 23.8205 14.9657 24.7148 16.3575 24.7148C17.3976 24.7148 18.3893 24.0412 18.769 23.0759C18.8554 22.8602 18.9062 22.5964 18.9062 22.3667V21.0462C18.9062 20.7646 18.877 20.5439 18.8122 20.3511H18.8109C18.5303 19.5697 17.7467 18.7324 16.3905 18.7324ZM9.92676 14.7378C10.3395 14.7378 10.6748 15.0866 10.6748 15.5167C10.6748 15.8998 10.3865 16.2955 9.90518 16.2956C9.49878 16.2956 9.1686 15.9391 9.1686 15.5167C9.1686 15.0942 9.51406 14.7378 9.92676 14.7378ZM26.9661 3.16245C27.7814 3.16245 28.5434 3.37427 29.1135 3.76113L29.4043 3.95781L28.7338 5.36836L28.3389 5.09692C27.9198 4.80898 27.3941 4.65674 26.8188 4.65674C26.0417 4.65674 25.5591 5.04492 25.5591 5.66777C25.5591 6.17266 25.7775 6.45684 27.1312 6.91475L27.1338 6.91602C28.2703 7.3042 29.5745 8.00698 29.5745 9.61421C29.5745 11.2214 28.2602 12.3009 26.3058 12.3009C26.0493 12.3009 25.7801 12.2781 25.5032 12.2337L25.3711 12.2122L25.7103 10.6557L25.8397 10.6912C25.9197 10.714 25.9769 10.733 26.0251 10.7508C26.1267 10.7875 26.1788 10.8053 26.3706 10.8053C27.3662 10.8053 27.9604 10.3842 27.9604 9.67891C27.9604 9.02812 27.5617 8.68052 26.3782 8.30249C24.3667 7.65557 23.9451 6.56719 23.9451 5.76675C23.9451 4.47285 24.9826 3.16245 26.9661 3.16245ZM17.8408 12.1031H16.2127V0.334912L17.8408 0V12.1031ZM21.8905 12.1031H20.2611V0.334912L21.8905 0V12.1031ZM9.41372 12.103H7.78442V6.55317L1.63052 7.90801V12.103H0.00126958V0.464209L1.63052 0.129346V6.40732L7.78442 5.05254V0.464209L9.41372 0.129346V12.103ZM13.5663 12.0827H11.9383V3.64697L13.5663 3.31206V12.0827ZM12.7573 0.626611C13.1701 0.626611 13.5053 0.975439 13.5053 1.40547C13.5053 1.78857 13.2171 2.18433 12.7358 2.18433C12.3294 2.18433 11.9992 1.82788 11.9992 1.40547C11.9992 0.983056 12.3446 0.626611 12.7573 0.626611Z" fill="url(#paint0_linear_24_52)"/>
</g>
<defs>
<linearGradient id="paint0_linear_24_52" x1="14.732" y1="-5.87007e-09" x2="14.5162" y2="29.5553" gradientUnits="userSpaceOnUse">
<stop stop-color="#004261"/>
<stop offset="1" stop-color="#00AEFF"/>
</linearGradient>
</defs>
</svg>
